<?xml version="1.0" encoding="UTF-8"?>
<svg width="171px" height="50px" viewBox="0 0 240 70" version="1.1" xmlns="http://www.w3.org/2000/svg" xmlns:xlink="http://www.w3.org/1999/xlink">
    <g stroke="none" stroke-width="1" fill="none" fill-rule="evenodd">
        <g>
            <path d="M232.978501,23.5050469 C232.696476,20.4874061 232.002551,17.7360446 230.916683,15.2066784 C232.771394,11.3424648 234.677303,9.91186033 234.677303,9.91186033 C234.677303,9.91186033 238.597303,19.9465082 235.158047,30.2589378 C233.030567,36.6395775 230.484534,40.4917136 229.119534,42.1466138 C228.814658,42.5158392 228.545361,42.6302876 228.711683,42.4068545 C231.926766,38.0721948 233.697303,31.178838 232.978501,23.5050469 M236.092344,35.6676291 C234.504328,37.5813322 232.899245,39.4375235 231.126105,40.8574883 C230.87127,41.0605047 230.710154,41.0458392 230.905402,40.8324707 C237.179658,33.983973 243.994534,18.8083509 235.161807,3.85184859 C235.161807,3.85184859 231.669617,6.26302817 228.80222,11.2619484 C225.975319,6.90859742 221.859782,3.26005282 216.73908,7.10542736e-15 C216.73908,7.10542736e-15 203.782716,14.4406221 209.514038,35.3587911 C192.986228,37.6385563 198.987716,50.3992606 201.607509,52.2353228 C201.728997,52.3213028 201.833129,52.2775939 201.664204,52.0187911 C200.734824,50.5939378 198.137592,45.6102582 203.491724,40.8304577 C206.363749,38.2665845 212.385485,37.5980106 212.385485,37.5980106 C211.016435,27.5544484 211.113047,18.4799589 217.976228,8.43639671 C218.852964,9.01726526 228.89189,13.430716 229.26908,28.2888732 C230.10879,37.6077876 225.270113,45.0667723 220.575195,47.9702523 C212.253295,52.4334507 202.916105,54.6229225 194.798997,56.5282864 C194.109989,56.6910446 194.378129,56.7658099 194.837757,56.7453932 C214.123336,55.9341901 231.268419,47.26027 237.860278,38.9828932 C239.130113,37.3924061 239.697633,35.6394484 238.842014,34.6692254 C237.986683,33.6990023 236.438295,35.2472183 236.092344,35.6676291" id="Fill-14" fill="#EC008C"/>
            <path d="M166.426033,41.8032277 C166.910537,38.7044953 168.281322,37.2261561 174.043595,37.2261561 C180.188843,37.2261561 181.640041,38.8327465 181.943471,41.8032277 L166.426033,41.8032277 Z M174.043595,32.5352113 C170.039421,32.5352113 160.661157,32.5352113 160.661157,44.8780927 C160.661157,57.2247124 170.039421,57.2247124 174.043595,57.2247124 L186.45095,57.2247124 L186.45095,52.5300293 L174.043595,52.5300293 C167.74157,52.5300293 166.421116,50.9441432 166.14314,46.4941725 L187.678554,46.4941725 L187.678554,44.8780927 C187.678554,32.5352113 178.47095,32.5352113 174.043595,32.5352113 L174.043595,32.5352113 Z" id="Fill-6" fill="#000000"/>
            <path d="M135.681074,41.8032277 C136.166736,38.7044953 137.539256,37.2270188 143.300372,37.2270188 C149.443884,37.2270188 150.895083,38.8327465 151.198512,41.8032277 L135.681074,41.8032277 Z M143.300372,32.5352113 C139.296198,32.5352113 129.917355,32.5352113 129.917355,44.8780927 C129.917355,57.2241373 139.296198,57.2241373 143.300372,57.2241373 L155.705992,57.2241373 L155.705992,52.5306045 L143.300372,52.5306045 C136.99719,52.5306045 135.677314,50.9447183 135.398182,46.4947477 L156.935331,46.4947477 L156.935331,44.8780927 C156.935331,32.5352113 147.724835,32.5352113 143.300372,32.5352113 L143.300372,32.5352113 Z" id="Fill-8" fill="#000000"/>
            <path d="M112.319215,52.5306045 C103.979669,52.5306045 103.636901,50.9458685 103.636901,44.8783803 C103.636901,38.9382805 104.007149,37.2270188 112.319215,37.2270188 C120.635331,37.2270188 121.007025,38.9382805 121.007025,44.8783803 C121.007025,50.8187676 120.635331,52.5306045 112.319215,52.5306045 M112.319215,32.5352113 C104.869711,32.5352113 98.1818182,33.4792664 98.1818182,44.8783803 L98.1818182,69.4905282 L103.636901,69.4905282 L103.636901,55.9243721 C106.241653,57.1197535 109.470909,57.2241373 112.319215,57.2241373 C119.773926,57.2241373 126.462686,56.2820951 126.462686,44.8783803 C126.462686,33.4792664 119.773926,32.5352113 112.319215,32.5352113" id="Fill-1" fill="#000000"/>
            <path d="M73.2014463,41.8032277 C73.6859504,38.7044953 75.0596281,37.2270188 80.8190083,37.2270188 C86.9630992,37.2270188 88.4151653,38.8327465 88.7200413,41.8032277 L73.2014463,41.8032277 Z M80.8190083,32.5352113 C76.8148347,32.5352113 67.4380165,32.5352113 67.4380165,44.8780927 C67.4380165,57.2241373 76.8148347,57.2241373 80.8190083,57.2241373 L93.2275207,57.2241373 L93.2275207,52.5306045 L80.8190083,52.5306045 C74.517562,52.5306045 73.197686,50.9447183 72.9185537,46.4947477 L94.455124,46.4947477 L94.455124,44.8780927 C94.455124,32.5352113 85.2431818,32.5352113 80.8190083,32.5352113 L80.8190083,32.5352113 Z" id="Fill-10" fill="#000000"/>
            <path d="M42.4564876,41.8032277 C42.9433058,38.7044953 44.3146694,37.2270188 50.0769421,37.2270188 C56.2204545,37.2270188 57.6739669,38.8327465 57.9762397,41.8032277 L42.4564876,41.8032277 Z M50.0769421,32.5352113 C46.0727686,32.5352113 36.6942149,32.5352113 36.6942149,44.8780927 C36.6942149,57.2241373 46.0727686,57.2241373 50.0769421,57.2241373 L62.482562,57.2241373 L62.482562,52.5306045 L50.0769421,52.5306045 C43.7737603,52.5306045 42.4553306,50.9447183 42.1747521,46.4947477 L63.7119008,46.4947477 L63.7119008,44.8780927 C63.7119008,32.5352113 54.502562,32.5352113 50.0769421,32.5352113 L50.0769421,32.5352113 Z" id="Fill-12" fill="#000000"/>
            <polygon fill="#000000" points="36.3143802 19.7183099 21.1943802 50.2679695 6.13020661 19.8764671 6.04690083 19.7183099 -1.17594823e-12 19.7183099 18.6645455 56.5240962 18.7501653 56.6727641 23.6438017 56.6727641 42.3673554 19.7183099"/>
        </g>
    </g>
</svg>